<svg width="40" height="33" viewBox="0 0 40 33" fill="none" xmlns="http://www.w3.org/2000/svg">
<path d="M37.5399 3.73673L23.5131 3.73672C21.6479 3.73672 19.9178 2.7745 18.9258 1.19506C18.4587 0.45145 17.6421 0 16.7636 0H10.5167C9.1064 0 7.96313 1.14327 7.96313 2.55357V32.3913H37.5399C38.8985 32.3913 39.9999 31.2899 39.9999 29.9313V6.19675C39.9999 4.83812 38.8985 3.73673 37.5399 3.73673Z" fill="url(#paint0_linear_21_258)"/>
<path d="M37.5386 7.37364V30.4713C37.5386 31.5317 36.679 32.3913 35.6186 32.3913H10.9161C9.8557 32.3913 8.99609 31.5317 8.99609 30.4713V7.37364C8.99609 6.31326 9.8557 5.45364 10.9161 5.45364H35.6186C36.679 5.45364 37.5386 6.31326 37.5386 7.37364Z" fill="url(#paint1_linear_21_258)"/>
<path d="M37.5373 32.3913H2.46001C1.10138 32.3913 0 31.2899 0 29.9313V5.98742C0 4.57712 1.14327 3.43385 2.55355 3.43385H8.80048C9.68007 3.43385 10.4977 3.88655 10.9646 4.632C11.9538 6.21144 13.6863 7.17058 15.5499 7.17058H32.6175C33.9761 7.17058 35.0775 8.27197 35.0775 9.63061V29.9314C35.0775 30.6123 35.3499 31.2252 35.8009 31.6678C36.2435 32.1189 36.8566 32.3913 37.5373 32.3913Z" fill="url(#paint2_linear_21_258)"/>
<defs>
<linearGradient id="paint0_linear_21_258" x1="23.9812" y1="14.7788" x2="23.9812" y2="29.9507" gradientUnits="userSpaceOnUse">
<stop stop-color="#FF9933"/>
<stop offset="1" stop-color="#FF8B22"/>
</linearGradient>
<linearGradient id="paint1_linear_21_258" x1="23.2673" y1="8.67815" x2="23.2673" y2="27.2569" gradientUnits="userSpaceOnUse">
<stop stop-color="#E9F4FF"/>
<stop offset="1" stop-color="#CCE8FF"/>
</linearGradient>
<linearGradient id="paint2_linear_21_258" x1="18.7687" y1="7.57879" x2="18.7687" y2="31.0769" gradientUnits="userSpaceOnUse">
<stop stop-color="#FFCC33"/>
<stop offset="1" stop-color="#FF9933"/>
</linearGradient>
</defs>
</svg>
